<?xml version="1.0" encoding="utf-8"?>
<!-- Generator: Adobe Illustrator 24.1.1, SVG Export Plug-In . SVG Version: 6.00 Build 0)  -->
<svg version="1.1" id="Calque_1" xmlns="http://www.w3.org/2000/svg" xmlns:xlink="http://www.w3.org/1999/xlink" x="0px" y="0px"
	 viewBox="0 0 243.925 80.215" style="enable-background:new 0 0 243.925 80.215;" xml:space="preserve">
<style type="text/css">
	.st0{fill:url(#SVGID_1_);}
	.st1{fill:url(#SVGID_2_);}
	.st2{fill:#FFFFFF;}
</style>
<linearGradient id="SVGID_1_" gradientUnits="userSpaceOnUse" x1="-4.135" y1="52.7" x2="59.869" y2="52.7" gradientTransform="matrix(1 0 0 -1 0 80)">
	<stop  offset="0.001" style="stop-color:#00FF7C"/>
	<stop  offset="0.998" style="stop-color:#00C5FF"/>
</linearGradient>
<path class="st0" d="M20.6,54.6c-1.54-0.004-2.786-1.255-2.783-2.795c0.001-0.395,0.086-0.785,0.249-1.145l16.07-35.36
	C38.384,5.992,47.668,0.014,57.9,0h7.27c1.539,0,2.786,1.247,2.786,2.786s-1.247,2.786-2.786,2.786H57.9
	c-8.049,0.012-15.351,4.715-18.692,12.038L23.135,52.97C22.682,53.963,21.691,54.6,20.6,54.6z"/>
<linearGradient id="SVGID_2_" gradientUnits="userSpaceOnUse" x1="0.504" y1="27.0882" x2="64.509" y2="27.0882" gradientTransform="matrix(1 0 0 -1 0 80)">
	<stop  offset="0.001" style="stop-color:#00FF7C"/>
	<stop  offset="0.998" style="stop-color:#00C5FF"/>
</linearGradient>
<path class="st1" d="M10.056,80.215h-7.27c-1.539-0.001-2.785-1.249-2.784-2.788c0.001-1.537,1.247-2.783,2.784-2.784h7.27
	c8.051-0.009,15.358-4.713,18.7-12.038l16.068-35.361c0.637-1.402,2.289-2.022,3.691-1.385c1.402,0.637,2.022,2.289,1.385,3.691l0,0
	L33.823,64.911C29.576,74.222,20.29,80.201,10.056,80.215z"/>
<path class="st2" d="M76.851,38.674v23.5h-6.236v-23.5h-3.349V33.3h3.349v-1.844c0-4.118,0.597-6.947,1.79-8.488
	c1.193-1.541,3.311-2.31,6.352-2.309l6.236,0.577l-0.058,5.139c-1.886-0.077-3.455-0.116-4.706-0.115
	c-1.013-0.109-2.009,0.318-2.629,1.126c-0.614,1.285-0.873,2.71-0.751,4.128V33.3h7.622v5.37L76.851,38.674z"/>
<path class="st2" d="M88.457,62.175V21.294h6.294v40.881H88.457z"/>
<path class="st2" d="M103.152,36.422c1.982-2.502,5.282-3.753,9.9-3.753s7.918,1.251,9.9,3.753c1.982,2.503,2.973,6.257,2.973,11.26
	c0,5.003-0.96,8.776-2.881,11.318c-1.925,2.54-5.255,3.81-9.989,3.811c-4.734,0.001-8.064-1.27-9.99-3.811
	c-1.925-2.541-2.887-6.313-2.887-11.318S101.169,38.924,103.152,36.422z M107.858,55.189c0.885,1.54,2.618,2.31,5.2,2.309
	s4.315-0.77,5.2-2.309c0.885-1.54,1.328-4.062,1.328-7.565c0-3.503-0.472-5.986-1.415-7.449c-0.944-1.462-2.647-2.193-5.11-2.194
	c-2.463-0.001-4.166,0.731-5.11,2.194c-0.944,1.467-1.416,3.95-1.415,7.449C106.537,51.123,106.977,53.645,107.858,55.189z"/>
<path class="st2" d="M128.761,33.3h6.178l4.562,23.5h1.155l5.485-22.923h6.467l5.486,22.923h1.155l4.5-23.5h6.237l-6.121,28.871
	h-9.989l-4.5-19.806l-4.5,19.806h-9.99L128.761,33.3z"/>
<path class="st2" d="M174.55,62.175V21.294h6.294v40.881H174.55z"/>
<path class="st2" d="M187.657,28.4v-6.64h6.293v6.64H187.657z M187.657,62.179V33.3h6.293v28.875L187.657,62.179z"/>
<path class="st2" d="M215.951,38.674h-7.969v12.7c-0.102,1.577,0.074,3.16,0.519,4.677c0.347,0.77,1.232,1.155,2.657,1.155
	l4.734-0.174l0.29,5.024c-1.938,0.423-3.909,0.674-5.891,0.751c-3.272,0-5.514-0.751-6.726-2.252
	c-1.212-1.501-1.818-4.331-1.819-8.488v-13.4h-3.7V33.3h3.7v-8.368h6.236V33.3h7.969L215.951,38.674z"/>
<path class="st2" d="M217.71,33.3h6.179l6.121,23.5h1.559l6.12-23.5h6.236l-10.971,41.29h-6.178l3.464-12.415h-4.965L217.71,33.3z"
	/>
</svg>
