<svg xmlns="http://www.w3.org/2000/svg" xmlns:xlink="http://www.w3.org/1999/xlink" viewBox="0 0 243.925 80.215"><defs><style>.a{fill:url(#a);}.b{fill:url(#b);}.c{fill:#172945;}</style><linearGradient id="a" x1="-4.135" y1="27.302" x2="59.869" y2="27.302" gradientUnits="userSpaceOnUse"><stop offset="0.001" stop-color="#00ff7c"/><stop offset="0.998" stop-color="#00c5ff"/></linearGradient><linearGradient id="b" x1="0.504" y1="52.913" x2="64.509" y2="52.913" xlink:href="#a"/></defs><path class="a" d="M20.6,54.6a2.789,2.789,0,0,1-2.534-3.94L34.136,15.3A26.162,26.162,0,0,1,57.9,0h7.27a2.786,2.786,0,1,1,0,5.572H57.9A20.58,20.58,0,0,0,39.208,17.61L23.135,52.97A2.786,2.786,0,0,1,20.6,54.6Z"/><path class="b" d="M10.056,80.215H2.786a2.786,2.786,0,0,1,0-5.572h7.27a20.581,20.581,0,0,0,18.7-12.038L44.824,27.244A2.786,2.786,0,0,1,49.9,29.55L33.823,64.911A26.162,26.162,0,0,1,10.056,80.215Z"/><path class="c" d="M76.851,38.674v23.5H70.615v-23.5H67.266V33.3h3.349V31.456q0-6.177,1.79-8.488t6.352-2.309l6.236.577-.058,5.139q-2.829-.116-4.706-.115A2.92,2.92,0,0,0,77.6,27.386a7.992,7.992,0,0,0-.751,4.128V33.3h7.622v5.37Z"/><path class="c" d="M88.457,62.175V21.294h6.294V62.175Z"/><path class="c" d="M103.152,36.422q2.973-3.753,9.9-3.753t9.9,3.753q2.973,3.755,2.973,11.26T123.044,59q-2.888,3.81-9.989,3.811T103.065,59q-2.887-3.811-2.887-11.318T103.152,36.422Zm4.706,18.767q1.327,2.31,5.2,2.309t5.2-2.309q1.328-2.31,1.328-7.565t-1.415-7.449q-1.416-2.193-5.11-2.194t-5.11,2.194q-1.416,2.2-1.415,7.449T107.858,55.189Z"/><path class="c" d="M128.761,33.3h6.178l4.562,23.5h1.155l5.485-22.923h6.467l5.486,22.923h1.155l4.5-23.5h6.237l-6.121,28.871h-9.989l-4.5-19.806-4.5,19.806h-9.99Z"/><path class="c" d="M174.55,62.175V21.294h6.294V62.175Z"/><path class="c" d="M187.657,28.4v-6.64h6.293V28.4Zm0,33.779V33.3h6.293V62.175Z"/><path class="c" d="M215.951,38.674h-7.969v12.7a13.513,13.513,0,0,0,.519,4.677q.52,1.155,2.657,1.155l4.734-.174.29,5.024a33.812,33.812,0,0,1-5.891.751q-4.908,0-6.726-2.252t-1.819-8.488v-13.4h-3.7V33.3h3.7V24.932h6.236V33.3h7.969Z"/><path class="c" d="M217.71,33.3h6.179l6.121,23.5h1.559l6.12-23.5h6.236L232.954,74.59h-6.178l3.464-12.415h-4.965Z"/></svg>