<svg viewBox="0 0 20 20" xmlns="http://www.w3.org/2000/svg">
<path d="M7.49999 0.833344V2.50001H12.5V0.833344H14.1667V2.50001H17.5C17.721 2.50001 17.933 2.58781 18.0892 2.74409C18.2455 2.90037 18.3333 3.11233 18.3333 3.33334V16.6667C18.3333 16.8877 18.2455 17.0997 18.0892 17.2559C17.933 17.4122 17.721 17.5 17.5 17.5H2.49999C2.27898 17.5 2.06701 17.4122 1.91073 17.2559C1.75445 17.0997 1.66666 16.8877 1.66666 16.6667V3.33334C1.66666 3.11233 1.75445 2.90037 1.91073 2.74409C2.06701 2.58781 2.27898 2.50001 2.49999 2.50001H5.83332V0.833344H7.49999ZM16.6667 6.66668H3.33332V15.8333H16.6667V6.66668ZM12.53 8.44668L13.7083 9.62501L9.58332 13.75L6.63666 10.8033L7.81666 9.62501L9.58416 11.3933L12.5308 8.44668H12.53Z" />
</svg>
