<svg viewBox="0 0 20 20" xmlns="http://www.w3.org/2000/svg">
<path d="M17.5 12.7025V17.5067C17.4998 17.726 17.4125 17.9363 17.2574 18.0913C17.1022 18.2463 16.8918 18.3333 16.6725 18.3333H3.32752C3.21808 18.3326 3.10987 18.3103 3.00906 18.2677C2.90825 18.2251 2.81681 18.1631 2.73997 18.0851C2.66313 18.0072 2.60239 17.9149 2.56122 17.8135C2.52005 17.7121 2.49925 17.6036 2.50002 17.4942V7.5H7.50002C7.72103 7.5 7.933 7.4122 8.08928 7.25592C8.24556 7.09964 8.33335 6.88768 8.33335 6.66667V1.66667H16.6684C17.1275 1.66667 17.5 2.04583 17.5 2.49333V5.63083L10.0009 13.1308L9.99585 16.6625L13.5342 16.6675L17.5 12.7025ZM18.1484 7.34L19.3267 8.51834L12.845 15L11.665 14.9983L11.6667 13.8217L18.1484 7.34V7.34ZM2.50002 5.83333L6.66669 1.66917V5.83333H2.50002Z" />
</svg>
