<svg viewBox="0 0 24 24" xmlns="http://www.w3.org/2000/svg">
<path d="M10.8998 2.09998L20.7988 3.51498L22.2128 13.415L13.0208 22.607C12.8333 22.7944 12.579 22.8998 12.3138 22.8998C12.0487 22.8998 11.7944 22.7944 11.6068 22.607L1.70685 12.707C1.51938 12.5194 1.41406 12.2651 1.41406 12C1.41406 11.7348 1.51938 11.4805 1.70685 11.293L10.8998 2.09998ZM13.7278 10.586C13.9136 10.7717 14.1341 10.9189 14.3768 11.0194C14.6195 11.1199 14.8796 11.1716 15.1422 11.1715C15.4049 11.1715 15.6649 11.1197 15.9076 11.0191C16.1502 10.9186 16.3707 10.7712 16.5563 10.5855C16.742 10.3997 16.8893 10.1792 16.9898 9.93654C17.0903 9.69386 17.1419 9.43377 17.1419 9.17112C17.1419 8.90847 17.0901 8.6484 16.9895 8.40576C16.889 8.16312 16.7416 7.94266 16.5558 7.75698C16.3701 7.57129 16.1496 7.424 15.9069 7.32353C15.6642 7.22306 15.4041 7.17138 15.1415 7.17142C14.611 7.17152 14.1024 7.38233 13.7273 7.75748C13.3523 8.13262 13.1417 8.64138 13.1418 9.17183C13.1419 9.70228 13.3527 10.211 13.7278 10.586Z" />
</svg>
