<svg viewBox="0 0 20 20" fill="none" xmlns="http://www.w3.org/2000/svg">
<path fill-rule="evenodd" clip-rule="evenodd" d="M18.3333 9.99998C18.3333 2.70831 17.7 1.74415 11 1.67165L9.49001 1.66748C2.66334 1.70081 1.74251 2.45915 1.67167 9.00081L1.66667 9.74248L1.67167 10.9991C1.74084 17.3816 2.61834 18.2591 9.00001 18.3283L10 18.3333C17.2917 18.3333 18.2558 17.7 18.3283 11L18.3333 9.99998ZM7.42942 12.14H7.43029C7.69684 12.14 7.93911 11.984 8.04977 11.7414L10.0534 7.33346C10.4159 6.53931 11.2077 6.02932 12.0806 6.02795H12.9866C13.3626 6.02795 13.6673 5.72325 13.6673 5.3473C13.6673 4.97134 13.3626 4.66665 12.9866 4.66665H12.0798C10.6739 4.66857 9.39799 5.49048 8.81429 6.76944L6.81073 11.178C6.77104 11.2657 6.75026 11.361 6.75001 11.4576C6.74928 11.8337 7.05353 12.139 7.42942 12.14ZM7.92006 15.3324H7.01375C6.63773 15.3322 6.3331 15.0272 6.33334 14.6513C6.33359 14.2758 6.63799 13.9714 7.01353 13.9711H7.91969C8.79273 13.97 9.58547 13.4599 9.94796 12.6656L11.9509 8.25759C12.1065 7.91525 12.51 7.76375 12.8524 7.91933C13.1948 8.07488 13.3463 8.47841 13.1907 8.82084L11.1864 13.2292C10.6028 14.5086 9.32625 15.3305 7.92006 15.3324Z" fill="url(#paint0_linear_215_3914)"/>
<defs>
<linearGradient id="paint0_linear_215_3914" x1="1.66667" y1="10.0004" x2="18.333" y2="1.66681" gradientUnits="userSpaceOnUse">
<stop stop-color="#00FF7C"/>
<stop offset="0.831231" stop-color="#38BFF0"/>
</linearGradient>
</defs>
</svg>
