<svg viewBox="0 0 20 20" xmlns="http://www.w3.org/2000/svg">
<path fill-rule="evenodd" clip-rule="evenodd" d="M18.3346 9.99998C18.3346 2.70831 17.7013 1.74415 11.0013 1.67165L9.4913 1.66748C2.66463 1.70081 1.7438 2.45915 1.67297 9.00081L1.66797 9.74248L1.67297 10.9991C1.74214 17.3816 2.61964 18.2591 9.0013 18.3283L10.0013 18.3333C17.293 18.3333 18.2571 17.7 18.3296 11L18.3346 9.99998ZM7.43072 12.14H7.43159C7.69814 12.14 7.94041 11.984 8.05107 11.7414L10.0547 7.33346C10.4171 6.53931 11.209 6.02932 12.0819 6.02795H12.9879C13.3639 6.02795 13.6686 5.72325 13.6686 5.3473C13.6686 4.97134 13.3639 4.66665 12.9879 4.66665H12.0811C10.6752 4.66857 9.39929 5.49048 8.81559 6.76944L6.81203 11.178C6.77234 11.2657 6.75155 11.361 6.75131 11.4576C6.75058 11.8337 7.05483 12.139 7.43072 12.14ZM7.92136 15.3324H7.01504C6.63903 15.3322 6.3344 15.0272 6.33464 14.6513C6.33489 14.2758 6.63929 13.9714 7.01483 13.9711H7.92098C8.79403 13.97 9.58677 13.4599 9.94926 12.6656L11.9522 8.25759C12.1078 7.91525 12.5113 7.76375 12.8537 7.91933C13.1961 8.07488 13.3476 8.47841 13.192 8.82084L11.1877 13.2292C10.6041 14.5086 9.32755 15.3305 7.92136 15.3324Z" />
</svg>
