<svg viewBox="0 0 24 24" xmlns="http://www.w3.org/2000/svg">
<path d="M5.33405 4.54495C6.36078 3.62523 7.56673 2.92794 8.87605 2.49695C9.25043 2.96597 9.72571 3.34458 10.2666 3.60462C10.8074 3.86466 11.3999 3.99944 12 3.99895C12.6002 3.99944 13.1927 3.86466 13.7335 3.60462C14.2744 3.34458 14.7497 2.96597 15.124 2.49695C16.4334 2.92794 17.6393 3.62523 18.666 4.54495C18.4476 5.1034 18.3577 5.70389 18.403 6.30184C18.4484 6.89979 18.6278 7.47985 18.928 7.99895C19.2276 8.51904 19.6406 8.9649 20.1363 9.30337C20.632 9.64184 21.1976 9.86421 21.791 9.95395C22.0716 11.3028 22.0716 12.695 21.791 14.0439C20.6311 14.2219 19.561 14.9039 18.928 15.9989C18.6277 16.5182 18.4481 17.0984 18.4028 17.6965C18.3574 18.2947 18.4474 18.8954 18.666 19.4539C17.6392 20.3733 16.4333 21.0703 15.124 21.5009C14.7496 21.0321 14.2742 20.6537 13.7334 20.3938C13.1925 20.134 12.6001 19.9993 12 19.9999C11.3999 19.9995 10.8074 20.1342 10.2666 20.3943C9.72571 20.6543 9.25043 21.0329 8.87605 21.5019C7.56682 21.0713 6.36087 20.3743 5.33405 19.4549C5.5527 18.8964 5.64269 18.2957 5.59733 17.6975C5.55197 17.0994 5.37243 16.5192 5.07205 15.9999C4.77234 15.48 4.3593 15.0344 3.86363 14.6961C3.36797 14.3578 2.80242 14.1356 2.20905 14.0459C1.92836 12.6967 1.92836 11.3042 2.20905 9.95495C2.80251 9.86521 3.36811 9.64284 3.86379 9.30437C4.35946 8.9659 4.77245 8.52004 5.07205 7.99995C5.37228 7.48085 5.55173 6.90079 5.59709 6.30284C5.64245 5.70489 5.55254 5.1044 5.33405 4.54595V4.54495ZM13.5 14.5969C13.844 14.4014 14.1458 14.1398 14.3883 13.8271C14.6307 13.5144 14.8088 13.1568 14.9125 12.775C15.0161 12.3932 15.0433 11.9947 14.9923 11.6023C14.9413 11.21 14.8132 10.8316 14.6153 10.489C14.4175 10.1463 14.1539 9.84622 13.8396 9.60589C13.5253 9.36556 13.1666 9.18978 12.7841 9.08865C12.4016 8.98753 12.0029 8.96306 11.6109 9.01665C11.2189 9.07025 10.8414 9.20086 10.5 9.40095C9.81663 9.8016 9.31942 10.4563 9.11694 11.2222C8.91445 11.9881 9.02312 12.803 9.41923 13.489C9.81533 14.1751 10.4667 14.6766 11.2313 14.8842C11.9958 15.0918 12.8114 14.9885 13.5 14.5969Z" />
</svg>
