<svg viewBox="0 0 20 20" xmlns="http://www.w3.org/2000/svg">
<path d="M5.0013 7.5H16.6163L17.033 5.83333H6.66797V4.16666H18.1013C18.228 4.16667 18.353 4.19555 18.4668 4.25111C18.5806 4.30667 18.6803 4.38746 18.7582 4.48732C18.8362 4.58718 18.8903 4.7035 18.9165 4.82742C18.9428 4.95135 18.9404 5.07962 18.9096 5.2025L16.8263 13.5358C16.7812 13.716 16.6771 13.876 16.5306 13.9903C16.3842 14.1046 16.2037 14.1667 16.018 14.1667H4.16797C3.94695 14.1667 3.73499 14.0789 3.57871 13.9226C3.42243 13.7663 3.33464 13.5543 3.33464 13.3333V3.33333H1.66797V1.66666H4.16797C4.38898 1.66666 4.60094 1.75446 4.75722 1.91074C4.9135 2.06702 5.0013 2.27898 5.0013 2.5V7.5ZM5.0013 19.1667C4.55927 19.1667 4.13535 18.9911 3.82279 18.6785C3.51023 18.3659 3.33464 17.942 3.33464 17.5C3.33464 17.058 3.51023 16.634 3.82279 16.3215C4.13535 16.0089 4.55927 15.8333 5.0013 15.8333C5.44333 15.8333 5.86725 16.0089 6.17981 16.3215C6.49237 16.634 6.66797 17.058 6.66797 17.5C6.66797 17.942 6.49237 18.3659 6.17981 18.6785C5.86725 18.9911 5.44333 19.1667 5.0013 19.1667ZM15.0013 19.1667C14.5593 19.1667 14.1354 18.9911 13.8228 18.6785C13.5102 18.3659 13.3346 17.942 13.3346 17.5C13.3346 17.058 13.5102 16.634 13.8228 16.3215C14.1354 16.0089 14.5593 15.8333 15.0013 15.8333C15.4433 15.8333 15.8673 16.0089 16.1798 16.3215C16.4924 16.634 16.668 17.058 16.668 17.5C16.668 17.942 16.4924 18.3659 16.1798 18.6785C15.8673 18.9911 15.4433 19.1667 15.0013 19.1667Z" />
</svg>
