<svg viewBox="0 0 20 20" xmlns="http://www.w3.org/2000/svg">
<path d="M9.99991 10.4882L13.5357 14.0232L12.3566 15.2023L10.8332 13.679V18.3332H9.16658V13.6773L7.64325 15.2023L6.46408 14.0232L9.99991 10.4882ZM9.99991 1.6665C11.4307 1.66657 12.8116 2.19243 13.8801 3.1441C14.9485 4.09577 15.63 5.40689 15.7949 6.82817C16.8318 7.11093 17.7363 7.74909 18.3505 8.63111C18.9646 9.51313 19.2492 10.5829 19.1546 11.6535C19.06 12.7241 18.5922 13.7274 17.8329 14.488C17.0736 15.2487 16.0712 15.7183 15.0007 15.8148L14.9999 14.1665C15.0012 12.8558 14.4878 11.597 13.5702 10.661C12.6526 9.72512 11.4042 9.18694 10.0937 9.16236C8.7832 9.13778 7.51546 9.62877 6.5634 10.5296C5.61134 11.4305 5.05108 12.6692 5.00325 13.979L4.99991 14.1665V15.8148C3.92945 15.7184 2.92692 15.2489 2.16752 14.4883C1.40813 13.7277 0.940184 12.7245 0.845474 11.6539C0.750763 10.5833 1.03531 9.51341 1.64939 8.63132C2.26346 7.74922 3.168 7.11099 4.20491 6.82817C4.36967 5.40682 5.05108 4.0956 6.11956 3.14389C7.18804 2.19219 8.56904 1.66639 9.99991 1.6665Z" />
</svg>
