<svg viewBox="0 0 20 20" xmlns="http://www.w3.org/2000/svg">
<path d="M9.99992 11.6666V18.3333H3.33325C3.33325 16.5651 4.03563 14.8694 5.28587 13.6192C6.53612 12.369 8.23181 11.6666 9.99992 11.6666ZM9.99992 10.8333C7.23742 10.8333 4.99992 8.59575 4.99992 5.83325C4.99992 3.07075 7.23742 0.833252 9.99992 0.833252C12.7624 0.833252 14.9999 3.07075 14.9999 5.83325C14.9999 8.59575 12.7624 10.8333 9.99992 10.8333ZM12.1624 15.6766C12.0568 15.2319 12.0568 14.7687 12.1624 14.3241L11.3358 13.8466L12.1691 12.4033L12.9958 12.8808C13.3276 12.5665 13.7286 12.3347 14.1666 12.2041V11.2499H15.8333V12.2041C16.2766 12.3358 16.6766 12.5708 17.0041 12.8808L17.8308 12.4033L18.6641 13.8466L17.8374 14.3241C17.9429 14.7685 17.9429 15.2314 17.8374 15.6758L18.6641 16.1533L17.8308 17.5966L17.0041 17.1191C16.6723 17.4334 16.2712 17.6651 15.8333 17.7958V18.7499H14.1666V17.7958C13.7286 17.6651 13.3276 17.4334 12.9958 17.1191L12.1691 17.5966L11.3358 16.1533L12.1624 15.6766ZM14.9999 14.1666C14.7789 14.1666 14.5669 14.2544 14.4107 14.4107C14.2544 14.5669 14.1666 14.7789 14.1666 14.9999C14.1666 15.2209 14.2544 15.4329 14.4107 15.5892C14.5669 15.7455 14.7789 15.8333 14.9999 15.8333C15.2209 15.8333 15.4329 15.7455 15.5892 15.5892C15.7455 15.4329 15.8333 15.2209 15.8333 14.9999C15.8333 14.7789 15.7455 14.5669 15.5892 14.4107C15.4329 14.2544 15.2209 14.1666 14.9999 14.1666Z" />
</svg>
