<svg width="0" height="0" style="position:absolute"><symbol viewBox="0 0 24 24" id="svg-account-circle-fill" xmlns="http://www.w3.org/2000/svg"><path d="M12 2c5.52 0 10 4.48 10 10s-4.48 10-10 10S2 17.52 2 12 6.48 2 12 2zM6.023 15.416C7.491 17.606 9.695 19 12.16 19c2.464 0 4.669-1.393 6.136-3.584A8.968 8.968 0 0012.16 13a8.968 8.968 0 00-6.137 2.416zM12 11a3 3 0 100-6 3 3 0 000 6z"/></symbol><symbol viewBox="0 0 20 20" id="svg-add-circle-fill" xmlns="http://www.w3.org/2000/svg"><path d="M10.001 18.333a8.333 8.333 0 110-16.666 8.333 8.333 0 110 16.666zm-.833-9.166H5.835v1.666h3.333v3.334h1.667v-3.334h3.333V9.167h-3.333V5.833H9.168v3.334z"/></symbol><symbol viewBox="0 0 20 20" id="svg-add-line-alt" xmlns="http://www.w3.org/2000/svg"><path d="M9.048 9.048V3.333h1.904v5.715h5.715v1.905h-5.715v5.714H9.048v-5.715H3.333V9.049h5.715z"/></symbol><symbol viewBox="0 0 24 24" id="svg-alert-fill" xmlns="http://www.w3.org/2000/svg"><path d="M12.866 3l9.526 16.5a1 1 0 01-.866 1.5H2.474a1 1 0 01-.866-1.5L11.134 3a1 1 0 011.732 0zM11 16v2h2v-2h-2zm0-7v5h2V9h-2z"/></symbol><symbol viewBox="0 0 24 24" id="svg-arrow-down-line" xmlns="http://www.w3.org/2000/svg"><path d="M13 16.172l5.364-5.364 1.414 1.414L12 20l-7.778-7.778 1.414-1.414L11 16.172V4h2v12.172z"/></symbol><symbol viewBox="0 0 24 24" id="svg-arrow-down-s-fill" xmlns="http://www.w3.org/2000/svg"><path d="M12 16l-6-6h12l-6 6z"/></symbol><symbol viewBox="0 0 24 24" id="svg-arrow-down-s-line" xmlns="http://www.w3.org/2000/svg"><path d="M12 13.172l4.95-4.95 1.414 1.414L12 16 5.636 9.636 7.05 8.222l4.95 4.95z"/></symbol><symbol viewBox="0 0 24 24" id="svg-arrow-left-s-fill" xmlns="http://www.w3.org/2000/svg"><path d="M8 12l6-6v12l-6-6z"/></symbol><symbol viewBox="0 0 24 24" id="svg-arrow-left-s-line" xmlns="http://www.w3.org/2000/svg"><path d="M10.828 12l4.95 4.95-1.414 1.414L8 12l6.364-6.364 1.414 1.414-4.95 4.95z"/></symbol><symbol viewBox="0 0 24 24" id="svg-arrow-right-s-fill" xmlns="http://www.w3.org/2000/svg"><path d="M16 12l-6 6V6l6 6z"/></symbol><symbol viewBox="0 0 24 24" id="svg-arrow-right-s-line" xmlns="http://www.w3.org/2000/svg"><path d="M13.172 12l-4.95-4.95 1.414-1.414L16 12l-6.364 6.364-1.414-1.414 4.95-4.95z"/></symbol><symbol viewBox="0 0 24 24" id="svg-arrow-up-left-line" xmlns="http://www.w3.org/2000/svg"><path d="M14.9 9.95l-1.414 1.414-2.536-2.536V19h-2V8.828l-2.535 2.536L5 9.95 9.95 5l4.95 4.95z"/><path d="M10.95 17v2h7v-2h-7z"/></symbol><symbol viewBox="0 0 24 24" id="svg-arrow-up-line" xmlns="http://www.w3.org/2000/svg"><path d="M13 7.828V20h-2V7.828l-5.364 5.364-1.414-1.414L12 4l7.778 7.778-1.414 1.414L13 7.828z"/></symbol><symbol viewBox="0 0 24 24" id="svg-arrow-up-s-fill" xmlns="http://www.w3.org/2000/svg"><path d="M12 8l6 6H6l6-6z"/></symbol><symbol viewBox="0 0 24 24" id="svg-building-fill" xmlns="http://www.w3.org/2000/svg"><path d="M21 19h2v2H1v-2h2V4a1 1 0 011-1h10a1 1 0 011 1v15h2V9h3a1 1 0 011 1v9zM7 11v2h4v-2H7zm0-4v2h4V7H7z"/></symbol><symbol viewBox="0 0 20 20" id="svg-calendar-check-fill" xmlns="http://www.w3.org/2000/svg"><path d="M7.5.833V2.5h5V.833h1.667V2.5H17.5a.833.833 0 01.833.833v13.334a.833.833 0 01-.833.833h-15a.833.833 0 01-.833-.833V3.333A.833.833 0 012.5 2.5h3.333V.833H7.5zm9.167 5.834H3.333v9.166h13.334V6.667zm-4.137 1.78l1.178 1.178-4.125 4.125-2.946-2.947 1.18-1.178 1.767 1.768 2.947-2.946h-.001z"/></symbol><symbol viewBox="0 0 24 24" id="svg-calendar-event-fill" xmlns="http://www.w3.org/2000/svg"><path d="M17 3h4a1 1 0 011 1v16a1 1 0 01-1 1H3a1 1 0 01-1-1V4a1 1 0 011-1h4V1h2v2h6V1h2v2zM4 9v10h16V9H4zm2 4h5v4H6v-4z"/></symbol><symbol viewBox="0 0 24 24" id="svg-check-line" xmlns="http://www.w3.org/2000/svg"><path d="M10 15.172l9.192-9.193 1.415 1.414L10 18l-6.364-6.364 1.414-1.414 4.95 4.95z"/></symbol><symbol viewBox="0 0 24 24" id="svg-checkbox-blank-line" xmlns="http://www.w3.org/2000/svg"><path d="M4 3h16a1 1 0 011 1v16a1 1 0 01-1 1H4a1 1 0 01-1-1V4a1 1 0 011-1zm1 2v14h14V5H5z"/></symbol><symbol viewBox="0 0 20 20" id="svg-checkbox-circle-fill" xmlns="http://www.w3.org/2000/svg"><path d="M10 18.333a8.333 8.333 0 110-16.666A8.333 8.333 0 0118.333 10 8.333 8.333 0 0110 18.333zm-.83-5l5.89-5.892-1.178-1.179-4.713 4.715-2.357-2.358-1.179 1.178 3.536 3.536z"/></symbol><symbol viewBox="0 0 24 24" id="svg-checkbox-circle-line" xmlns="http://www.w3.org/2000/svg"><path d="M12 22C6.477 22 2 17.523 2 12S6.477 2 12 2s10 4.477 10 10-4.477 10-10 10zm0-2a8 8 0 100-16.001A8 8 0 0012 20zm-.997-4L6.76 11.757l1.414-1.414 2.829 2.829 5.656-5.657 1.415 1.414L11.003 16z"/></symbol><symbol viewBox="0 0 24 24" id="svg-checkbox-fill" xmlns="http://www.w3.org/2000/svg"><path d="M4 3h16a1 1 0 011 1v16a1 1 0 01-1 1H4a1 1 0 01-1-1V4a1 1 0 011-1zm7.003 13l7.07-7.071-1.414-1.414-5.656 5.657-2.829-2.829-1.414 1.414L11.003 16z"/></symbol><symbol viewBox="0 0 24 24" id="svg-close-line" xmlns="http://www.w3.org/2000/svg"><path d="M12 10.586l4.95-4.95 1.414 1.414-4.95 4.95 4.95 4.95-1.414 1.414-4.95-4.95-4.95 4.95-1.414-1.414 4.95-4.95-4.95-4.95L7.05 5.636l4.95 4.95z"/></symbol><symbol viewBox="0 0 24 24" id="svg-delete-bin-fill" xmlns="http://www.w3.org/2000/svg"><path d="M17 6h5v2h-2v13a1 1 0 01-1 1H5a1 1 0 01-1-1V8H2V6h5V3a1 1 0 011-1h8a1 1 0 011 1v3zm-8 5v6h2v-6H9zm4 0v6h2v-6h-2zM9 4v2h6V4H9z"/></symbol><symbol viewBox="0 0 20 20" id="svg-download-2-line" xmlns="http://www.w3.org/2000/svg"><path d="M10.833 8.333H15l-5 5-5-5h4.166V2.5h1.667v5.833zm-7.5 7.5h13.334V10h1.666v6.667a.833.833 0 01-.833.833h-15a.833.833 0 01-.833-.833V10h1.666v5.833z"/></symbol><symbol viewBox="0 0 24 24" id="svg-download-cloud-fill" xmlns="http://www.w3.org/2000/svg"><path d="M7 20.981a6.5 6.5 0 01-2.936-12 8.001 8.001 0 0115.872 0 6.5 6.5 0 01-2.936 12V21H7v-.019zM13 12V8h-2v4H8l4 5 4-5h-3z"/></symbol><symbol viewBox="0 0 20 20" id="svg-edit-2-fill" xmlns="http://www.w3.org/2000/svg"><path d="M7.702 15.833H17.5V17.5h-15v-3.536l8.25-8.25 3.535 3.537-6.583 6.582zm4.226-11.296l1.768-1.769a.833.833 0 011.178 0l2.358 2.358a.833.833 0 010 1.178l-1.769 1.768-3.535-3.535z"/></symbol><symbol viewBox="0 0 20 20" id="svg-edit-fill" xmlns="http://www.w3.org/2000/svg"><path d="M6.036 15H2.5v-3.536l9.53-9.529a.833.833 0 011.178 0l2.357 2.358a.833.833 0 010 1.178L6.035 15zM2.5 16.667h15v1.666h-15v-1.666z"/></symbol><symbol viewBox="0 0 24 24" id="svg-error-warning-fill" xmlns="http://www.w3.org/2000/svg"><path d="M12 22C6.477 22 2 17.523 2 12S6.477 2 12 2s10 4.477 10 10-4.477 10-10 10zm-1-7v2h2v-2h-2zm0-8v6h2V7h-2z"/></symbol><symbol viewBox="0 0 20 20" id="svg-file-edit-fill" xmlns="http://www.w3.org/2000/svg"><path d="M17.5 12.703v4.804a.828.828 0 01-.828.826H3.329a.832.832 0 01-.828-.839V7.5h5a.833.833 0 00.833-.833v-5h8.335c.46 0 .832.379.832.826v3.138l-7.5 7.5-.004 3.532 3.538.005 3.966-3.965zm.648-5.363l1.179 1.178L12.845 15l-1.18-.002.002-1.176 6.481-6.482zM2.5 5.833L6.667 1.67v4.164H2.5z"/></symbol><symbol viewBox="0 0 24 24" id="svg-file-search-fill" xmlns="http://www.w3.org/2000/svg"><path d="M16 2l5 5v14.008a.993.993 0 01-.993.992H3.993A1 1 0 013 21.008V2.992C3 2.444 3.445 2 3.993 2H16zm-2.471 12.446l2.21 2.21 1.415-1.413-2.21-2.21a4.002 4.002 0 00-6.276-4.861 4 4 0 004.861 6.274zm-.618-2.032a2 2 0 11-2.877-2.78 2 2 0 012.877 2.78z"/></symbol><symbol viewBox="0 0 512 512" id="svg-flag-france" xmlns="http://www.w3.org/2000/svg"><circle fill="#F0F0F0" cx="256" cy="256" r="256"/><path fill="#D80027" d="M512 256c0-110.071-69.472-203.906-166.957-240.077v480.155C442.528 459.906 512 366.071 512 256z"/><path fill="#0052B4" d="M0 256c0 110.071 69.473 203.906 166.957 240.077V15.923C69.473 52.094 0 145.929 0 256z"/></symbol><symbol viewBox="0 0 512 512" id="svg-flag-uk" xmlns="http://www.w3.org/2000/svg"><circle fill="#F0F0F0" cx="256" cy="256" r="256"/><path fill="#0052B4" d="M52.92 100.142c-20.109 26.163-35.272 56.318-44.101 89.077h133.178L52.92 100.142zM503.181 189.219c-8.829-32.758-23.993-62.913-44.101-89.076l-89.075 89.076h133.176zM8.819 322.784c8.83 32.758 23.993 62.913 44.101 89.075l89.074-89.075H8.819zM411.858 52.921c-26.163-20.109-56.317-35.272-89.076-44.102v133.177l89.076-89.075zM100.142 459.079c26.163 20.109 56.318 35.272 89.076 44.102V370.005l-89.076 89.074zM189.217 8.819c-32.758 8.83-62.913 23.993-89.075 44.101l89.075 89.075V8.819zM322.783 503.181c32.758-8.83 62.913-23.993 89.075-44.101l-89.075-89.075v133.176zM370.005 322.784l89.075 89.076c20.108-26.162 35.272-56.318 44.101-89.076H370.005z"/><path fill="#D80027" d="M509.833 222.609H289.392V2.167A258.556 258.556 0 00256 0c-11.319 0-22.461.744-33.391 2.167v220.441H2.167A258.556 258.556 0 000 256c0 11.319.744 22.461 2.167 33.391h220.441v220.442a258.35 258.35 0 0066.783 0V289.392h220.442A258.533 258.533 0 00512 256c0-11.317-.744-22.461-2.167-33.391z"/><path fill="#D80027" d="M322.783 322.784L437.019 437.02a256.636 256.636 0 0015.048-16.435l-97.802-97.802h-31.482v.001zM189.217 322.784h-.002L74.98 437.019a256.636 256.636 0 0016.435 15.048l97.802-97.804v-31.479zM189.217 189.219v-.002L74.981 74.98a256.636 256.636 0 00-15.048 16.435l97.803 97.803h31.481zM322.783 189.219L437.02 74.981a256.328 256.328 0 00-16.435-15.047l-97.802 97.803v31.482z"/></symbol><symbol viewBox="0 0 16 16" id="svg-flowlity-circle-delete" xmlns="http://www.w3.org/2000/svg"><path d="M8 14.667A6.666 6.666 0 118 1.334a6.666 6.666 0 010 13.333zm0-7.61L6.114 5.171l-.943.944L7.057 8 5.171 9.885l.943.944L8 8.943l1.885 1.886.943-.944L8.942 8l1.886-1.885-.943-.944L8 7.057z"/></symbol><symbol viewBox="0 0 24 24" id="svg-group-fill" xmlns="http://www.w3.org/2000/svg"><path d="M2 22a8 8 0 0116 0H2zm8-9c-3.315 0-6-2.685-6-6s2.685-6 6-6 6 2.685 6 6-2.685 6-6 6zm7.363 2.233A7.504 7.504 0 0122.983 22H20c0-2.61-1-4.986-2.637-6.767zm-2.023-2.276A7.98 7.98 0 0018 7a7.964 7.964 0 00-1.015-3.903 5 5 0 01-1.645 9.86z"/></symbol><symbol viewBox="0 0 24 24" id="svg-history-line" xmlns="http://www.w3.org/2000/svg"><path d="M12 2c5.523 0 10 4.477 10 10s-4.477 10-10 10S2 17.523 2 12h2a8 8 0 101.385-4.5H8v2H2v-6h2V6a9.98 9.98 0 018-4zm1 5v4.585l3.243 3.243-1.415 1.415L11 12.413V7h2z"/></symbol><symbol viewBox="0 0 24 24" id="svg-indeterminate-circle-line" xmlns="http://www.w3.org/2000/svg"><path d="M12 22C6.477 22 2 17.523 2 12S6.477 2 12 2s10 4.477 10 10-4.477 10-10 10zm0-2a8 8 0 100-16.001A8 8 0 0012 20zm-5-9h10v2H7v-2z"/></symbol><symbol viewBox="0 0 24 24" id="svg-information-fill" xmlns="http://www.w3.org/2000/svg"><path d="M12 22C6.477 22 2 17.523 2 12S6.477 2 12 2s10 4.477 10 10-4.477 10-10 10zm-1-11v6h2v-6h-2zm0-4v2h2V7h-2z"/></symbol><symbol viewBox="0 0 24 24" id="svg-line-chart-fill" xmlns="http://www.w3.org/2000/svg"><path d="M5 3v16h16v2H3V3h2zm14.94 2.94l2.12 2.12L16 14.122l-3-3-3.94 3.94-2.12-2.122L13 6.88l3 3 3.94-3.94z"/></symbol><symbol viewBox="0 0 24 24" id="svg-list-check" xmlns="http://www.w3.org/2000/svg"><path d="M8 4h13v2H8V4zm-5-.5h3v3H3v-3zm0 7h3v3H3v-3zm0 7h3v3H3v-3zM8 11h13v2H8v-2zm0 7h13v2H8v-2z"/></symbol><symbol viewBox="0 0 24 24" id="svg-loader-4-fill" xmlns="http://www.w3.org/2000/svg"><path d="M18.364 5.636L16.95 7.05A7 7 0 1019 12h2a9 9 0 11-2.636-6.364z"/></symbol><symbol viewBox="0 0 24 24" id="svg-logout-box-r-line" xmlns="http://www.w3.org/2000/svg"><path d="M5 22a1 1 0 01-1-1V3a1 1 0 011-1h14a1 1 0 011 1v3h-2V4H6v16h12v-2h2v3a1 1 0 01-1 1H5zm13-6v-3h-7v-2h7V8l5 4-5 4z"/></symbol><symbol viewBox="0 0 24 24" id="svg-map-pin-2-fill" xmlns="http://www.w3.org/2000/svg"><path d="M18.364 17.364L12 23.728l-6.364-6.364a9 9 0 1112.728 0zM12 13a2 2 0 100-4 2 2 0 000 4z"/></symbol><symbol viewBox="0 0 24 24" id="svg-pencil-fill" xmlns="http://www.w3.org/2000/svg"><path d="M12.9 6.858l4.242 4.243-9.9 9.9H3v-4.244l9.9-9.9v.001zm1.414-1.414l2.121-2.122a1 1 0 011.414 0l2.829 2.83a1 1 0 010 1.413l-2.122 2.121-4.242-4.242z"/></symbol><symbol viewBox="0 0 24 24" id="svg-price-tag-3-fill" xmlns="http://www.w3.org/2000/svg"><path d="M10.9 2.1l9.899 1.415 1.414 9.9-9.192 9.192a1 1 0 01-1.414 0l-9.9-9.9a1 1 0 010-1.414L10.9 2.1zm2.828 8.486a2 2 0 102.828-2.83 2 2 0 00-2.828 2.83z"/></symbol><symbol viewBox="0 0 20 20" id="svg-rectangle-flowlity" xmlns="http://www.w3.org/2000/svg"><path fill-rule="evenodd" clip-rule="evenodd" d="M18.335 10c0-7.292-.634-8.256-7.334-8.328l-1.51-.005c-6.826.034-7.747.792-7.818 7.334l-.005.741L1.673 11c.07 6.383.947 7.26 7.328 7.33l1 .004c7.292 0 8.256-.633 8.329-7.333l.005-1zM7.43 12.14a.681.681 0 00.62-.399l2.004-4.408a2.232 2.232 0 012.027-1.305h.906a.68.68 0 100-1.361h-.907a3.596 3.596 0 00-3.265 2.102l-2.004 4.409a.682.682 0 00.619.962zm.49 3.192h-.906a.68.68 0 010-1.36h.906a2.233 2.233 0 002.028-1.306l2.003-4.408a.68.68 0 111.24.563l-2.004 4.408a3.596 3.596 0 01-3.267 2.103z"/></symbol><symbol viewBox="0 0 20 20" fill="none" id="svg-rectangle-flowlity-2" xmlns="http://www.w3.org/2000/svg"><path fill-rule="evenodd" clip-rule="evenodd" d="M18.333 10c0-7.292-.633-8.256-7.333-8.328l-1.51-.005c-6.827.034-7.747.792-7.818 7.334l-.005.741L1.672 11c.069 6.383.946 7.26 7.328 7.33l1 .004c7.292 0 8.256-.633 8.328-7.333l.005-1zM7.43 12.14h.001a.681.681 0 00.62-.399l2.003-4.408a2.232 2.232 0 012.028-1.305h.906a.68.68 0 100-1.361h-.907a3.596 3.596 0 00-3.266 2.102l-2.003 4.409a.683.683 0 00.618.962zm.491 3.192h-.906a.68.68 0 010-1.36h.906a2.233 2.233 0 002.028-1.306l2.003-4.408a.68.68 0 111.24.563l-2.005 4.408a3.596 3.596 0 01-3.266 2.103z" fill="url(#bupaint0_linear_215_3914)"/><defs><linearGradient id="bupaint0_linear_215_3914" x1="1.667" y1="10" x2="18.333" y2="1.667" gradientUnits="userSpaceOnUse"><stop stop-color="#00FF7C"/><stop offset=".831" stop-color="#38BFF0"/></linearGradient></defs></symbol><symbol viewBox="0 0 20 20" id="svg-rectangle-flowlity-3" xmlns="http://www.w3.org/2000/svg"><path d="M18.335 10c0-7.292-.634-8.256-7.334-8.328l-1.51-.004C2.665 1.7 1.744 2.458 1.673 9l-.005.742.005 1.256c.07 6.383.947 7.26 7.328 7.33l1 .004c7.292 0 8.256-.633 8.329-7.333l.005-1z"/></symbol><symbol viewBox="0 0 24 24" id="svg-refresh-line" xmlns="http://www.w3.org/2000/svg"><path d="M5.463 4.433A9.961 9.961 0 0112 2c5.523 0 10 4.477 10 10 0 2.136-.67 4.116-1.81 5.74L17 12h3A8 8 0 006.46 6.228l-.997-1.795zm13.074 15.134A9.961 9.961 0 0112 22C6.477 22 2 17.523 2 12c0-2.136.67-4.116 1.81-5.74L7 12H4a8 8 0 0013.54 5.772l.997 1.795z"/></symbol><symbol viewBox="0 0 24 24" id="svg-search-line" xmlns="http://www.w3.org/2000/svg"><path d="M18.031 16.617l4.283 4.282-1.415 1.415-4.282-4.283A8.96 8.96 0 0111 20c-4.968 0-9-4.032-9-9s4.032-9 9-9 9 4.032 9 9a8.96 8.96 0 01-1.969 5.617zm-2.006-.742A6.977 6.977 0 0018 11c0-3.868-3.133-7-7-7-3.868 0-7 3.132-7 7 0 3.867 3.132 7 7 7a6.977 6.977 0 004.875-1.975l.15-.15z"/></symbol><symbol viewBox="0 0 24 24" id="svg-settings-4-fill" xmlns="http://www.w3.org/2000/svg"><path d="M5.334 4.545a9.99 9.99 0 013.542-2.048A3.993 3.993 0 0012 3.999a3.993 3.993 0 003.124-1.502 9.989 9.989 0 013.542 2.048 3.995 3.995 0 001.47 4.758c.496.339 1.062.561 1.655.65a10.04 10.04 0 010 4.09 3.996 3.996 0 00-3.388 3.654 3.993 3.993 0 00.263 1.757 9.987 9.987 0 01-3.542 2.047A3.993 3.993 0 0012 20a3.993 3.993 0 00-3.124 1.502 9.988 9.988 0 01-3.542-2.047A3.993 3.993 0 005.072 16a3.993 3.993 0 00-2.863-1.954c-.28-1.35-.28-2.742 0-4.091A3.993 3.993 0 005.072 8a3.993 3.993 0 00.262-3.454v-.001zM13.5 14.597a3 3 0 10-2.964-5.216 3 3 0 002.964 5.216z"/></symbol><symbol viewBox="0 0 20 20" id="svg-shopping-cart-fill" xmlns="http://www.w3.org/2000/svg"><path d="M5.001 7.5h11.615l.417-1.667H6.668V4.167h11.433a.833.833 0 01.809 1.035l-2.084 8.334a.833.833 0 01-.808.63H4.168a.833.833 0 01-.833-.833v-10H1.668V1.667h2.5a.833.833 0 01.833.833v5zm0 11.667a1.667 1.667 0 110-3.333 1.667 1.667 0 010 3.333zm10 0a1.667 1.667 0 110-3.334 1.667 1.667 0 010 3.334z"/></symbol><symbol viewBox="0 0 24 24" id="svg-star-fill" xmlns="http://www.w3.org/2000/svg"><path d="M12 18.26l-7.053 3.948 1.575-7.928L.587 8.792l8.027-.952L12 .5l3.386 7.34 8.027.952-5.935 5.488 1.575 7.928L12 18.26z"/></symbol><symbol viewBox="0 0 24 24" id="svg-store-2-fill" xmlns="http://www.w3.org/2000/svg"><path d="M22 20v2H2v-2h1v-6.758A4.496 4.496 0 011 9.5c0-.827.224-1.624.633-2.303L4.345 2.5a1 1 0 01.866-.5H18.79a1 1 0 01.866.5l2.702 4.682A4.496 4.496 0 0121 13.242V20h1zM5.789 4L3.356 8.213a2.5 2.5 0 004.466 2.216c.335-.837 1.52-.837 1.856 0a2.5 2.5 0 004.644 0c.335-.837 1.52-.837 1.856 0a2.501 2.501 0 104.457-2.232L18.21 4H5.789z"/></symbol><symbol viewBox="0 0 24 24" id="svg-tools-fill" xmlns="http://www.w3.org/2000/svg"><path d="M5.33 3.271a3.5 3.5 0 014.472 4.474L20.647 18.59l-2.122 2.121L7.68 9.867a3.5 3.5 0 01-4.472-4.474L5.444 7.63a1.5 1.5 0 102.12-2.121L5.33 3.27v.001zm10.367 1.884l3.182-1.768 1.414 1.414-1.768 3.182-1.768.354-2.12 2.121-1.415-1.414 2.12-2.121.355-1.768zm-7.071 7.778l2.12 2.122-4.95 4.95A1.5 1.5 0 013.58 17.99l.097-.107 4.95-4.95h-.001z"/></symbol><symbol viewBox="0 0 24 24" id="svg-translate-2" xmlns="http://www.w3.org/2000/svg"><path d="M18.5 10l4.4 11h-2.155l-1.201-3h-4.09l-1.199 3h-2.154L16.5 10h2zM10 2v2h6v2h-1.968a18.222 18.222 0 01-3.62 6.301 14.866 14.866 0 002.336 1.707l-.751 1.878A17.013 17.013 0 019 13.725a16.677 16.677 0 01-6.201 3.548l-.536-1.929a14.7 14.7 0 005.327-3.042A18.079 18.079 0 014.767 8h2.24A16.032 16.032 0 009 10.877a16.165 16.165 0 002.91-4.876L2 6V4h6V2h2zm7.5 10.885L16.253 16h2.492L17.5 12.885z"/></symbol><symbol viewBox="0 0 24 24" id="svg-truck-fill" xmlns="http://www.w3.org/2000/svg"><path d="M17 8h3l3 4.056V18h-2.035a3.5 3.5 0 01-6.93 0h-5.07a3.5 3.5 0 01-6.93 0H1V6a1 1 0 011-1h14a1 1 0 011 1v2zm0 2v3h4v-.285L18.992 10H17z"/></symbol><symbol viewBox="0 0 20 20" id="svg-upload-cloud-2-fill" xmlns="http://www.w3.org/2000/svg"><path d="M10 10.488l3.536 3.535-1.18 1.18-1.523-1.524v4.654H9.167v-4.656l-1.524 1.525-1.179-1.179L10 10.488zm0-8.821a5.834 5.834 0 015.795 5.161A4.584 4.584 0 0115 15.815L15 14.166a5 5 0 00-9.997-.187L5 14.167v1.648a4.583 4.583 0 01-.795-8.987A5.833 5.833 0 0110 1.666z"/></symbol><symbol viewBox="0 0 24 24" id="svg-user-3-line" xmlns="http://www.w3.org/2000/svg"><path d="M20 22h-2v-2a3 3 0 00-3-3H9a3 3 0 00-3 3v2H4v-2a5 5 0 015-5h6a5 5 0 015 5v2zm-8-9A6 6 0 1112 .998 6 6 0 0112 13zm0-2a4 4 0 100-8 4 4 0 000 8z"/></symbol><symbol viewBox="0 0 20 20" id="svg-user-fill" xmlns="http://www.w3.org/2000/svg"><path d="M3.333 18.333a6.667 6.667 0 1113.334 0H3.333zm6.667-7.5c-2.763 0-5-2.237-5-5 0-2.762 2.237-5 5-5 2.762 0 5 2.238 5 5 0 2.763-2.238 5-5 5z"/></symbol><symbol viewBox="0 0 20 20" id="svg-user-settings-fill" xmlns="http://www.w3.org/2000/svg"><path d="M10 11.667v6.666H3.333A6.667 6.667 0 0110 11.667zm0-.834c-2.763 0-5-2.237-5-5 0-2.762 2.237-5 5-5 2.762 0 5 2.238 5 5 0 2.763-2.238 5-5 5zm2.162 4.844a2.927 2.927 0 010-1.353l-.826-.477.833-1.444.827.478a2.913 2.913 0 011.17-.677v-.954h1.667v.954a2.91 2.91 0 011.171.677l.827-.478.833 1.444-.827.477c.106.444.106.907 0 1.352l.827.477-.833 1.444-.827-.478a2.914 2.914 0 01-1.17.677v.954h-1.667v-.954a2.914 2.914 0 01-1.171-.677l-.827.478-.833-1.444.826-.476zM15 14.167a.833.833 0 100 1.666.833.833 0 000-1.666z"/></symbol></svg>